<?xml version="1.0" standalone="no"?>
<!DOCTYPE svg PUBLIC "-//W3C//DTD SVG 20010904//EN"
 "http://www.w3.org/TR/2001/REC-SVG-20010904/DTD/svg10.dtd">
<svg version="1.0" xmlns="http://www.w3.org/2000/svg"
 width="300.000000pt" height="233.000000pt" viewBox="0 0 300.000000 233.000000"
 preserveAspectRatio="xMidYMid meet">
<metadata>
Created by potrace 1.10, written by Peter Selinger 2001-2011
</metadata>
<g transform="translate(0.000000,233.000000) scale(0.100000,-0.100000)"
fill="#000000" stroke="none">
<path d="M783 2089 c-18 -3 -40 -12 -48 -19 -20 -17 -19 -74 2 -106 17 -27 92
-68 146 -80 17 -4 45 -13 62 -20 16 -7 68 -27 114 -45 112 -44 189 -95 236
-159 21 -29 58 -75 82 -103 28 -34 43 -60 43 -79 0 -26 -3 -28 -36 -28 -33 0
-47 10 -153 118 -133 135 -180 164 -280 170 -95 6 -197 -14 -232 -47 -64 -59
-41 -111 70 -155 141 -56 194 -120 281 -341 5 -11 18 -58 30 -105 12 -47 28
-107 35 -135 8 -27 17 -66 21 -85 6 -32 98 -253 114 -275 29 -39 69 -230 74
-358 l4 -98 353 1 c194 0 355 2 357 5 2 2 -4 68 -13 147 -56 468 -58 668 -14
1036 15 123 15 197 0 224 -7 13 -35 41 -62 63 -28 21 -105 92 -172 157 -148
144 -201 186 -292 232 -114 57 -212 76 -425 82 -102 2 -203 6 -225 7 -22 2
-55 0 -72 -4z m282 -49 c367 -19 443 -52 703 -304 64 -62 138 -131 163 -152
78 -65 77 -52 36 -394 -26 -221 -15 -562 30 -883 8 -60 13 -110 11 -112 -2 -1
-141 -6 -309 -9 l-306 -7 -6 108 c-6 108 -33 242 -61 298 -78 159 -118 272
-161 450 -31 131 -56 205 -101 303 -54 118 -172 226 -270 246 -18 4 -40 16
-50 27 -17 19 -17 20 3 40 26 26 80 38 173 39 106 0 151 -25 286 -162 109
-111 133 -128 183 -128 33 0 76 31 84 59 6 26 -25 94 -63 134 -17 17 -49 57
-70 88 -21 30 -53 67 -72 81 -37 28 -179 102 -218 113 -14 4 -38 13 -55 20
-16 7 -61 23 -100 36 -148 48 -184 119 -60 119 27 0 131 -5 230 -10z"/>
</g>
</svg>
