<?xml version="1.0" standalone="no"?>
<!DOCTYPE svg PUBLIC "-//W3C//DTD SVG 20010904//EN"
 "http://www.w3.org/TR/2001/REC-SVG-20010904/DTD/svg10.dtd">
<svg version="1.0" xmlns="http://www.w3.org/2000/svg"
 width="300.000000pt" height="233.000000pt" viewBox="0 0 300.000000 233.000000"
 preserveAspectRatio="xMidYMid meet">
<metadata>
Created by potrace 1.10, written by Peter Selinger 2001-2011
</metadata>
<g transform="translate(0.000000,233.000000) scale(0.100000,-0.100000)"
fill="#000000" stroke="none">
<path d="M1185 1799 c-200 -23 -372 -121 -623 -354 -63 -58 -99 -78 -161 -90
l-55 -11 -12 -60 c-16 -73 -17 -141 -4 -218 5 -32 12 -128 16 -215 4 -86 11
-164 16 -173 7 -16 24 -18 118 -18 60 0 121 -5 137 -11 27 -10 47 -16 208 -60
215 -59 493 -76 644 -40 44 11 84 22 89 25 12 7 136 29 342 61 216 33 304 53
365 82 75 35 97 81 70 145 -5 14 1 18 32 23 206 32 290 97 249 195 -5 12 3 19
29 29 46 16 85 59 85 93 0 58 -90 118 -177 118 -30 0 -33 2 -23 19 5 11 10 26
10 35 0 23 -49 75 -89 95 -89 44 -340 81 -558 81 l-142 0 6 48 c4 37 1 56 -12
76 -17 26 -82 65 -135 81 -14 4 -45 17 -70 29 -37 17 -66 21 -160 22 -63 1
-151 -2 -195 -7z m395 -79 c52 -18 105 -42 118 -53 25 -23 29 -64 8 -92 -12
-17 -31 -18 -202 -20 -190 -1 -254 -11 -254 -40 0 -16 25 -37 33 -29 3 4 31
12 60 19 43 10 132 11 403 4 192 -5 376 -13 409 -18 219 -32 306 -60 327 -106
23 -51 8 -54 -230 -54 -316 -1 -440 -9 -479 -33 -45 -27 -41 -38 10 -33 23 2
139 10 257 16 238 13 453 7 545 -15 93 -23 125 -80 63 -113 -28 -14 -92 -19
-428 -30 -217 -8 -405 -16 -417 -18 -20 -5 -25 -26 -10 -41 4 -4 171 1 371 11
346 18 366 18 391 1 33 -22 31 -61 -5 -88 -66 -49 -341 -88 -617 -88 l-193 0
0 -25 0 -25 168 1 c169 0 323 11 353 23 12 5 20 -1 29 -24 17 -40 1 -71 -46
-93 -45 -22 -175 -53 -254 -62 -134 -14 -291 -44 -475 -91 -91 -23 -347 -29
-475 -10 -129 18 -190 32 -350 80 -115 35 -132 37 -206 31 l-81 -6 -7 113
c-16 285 -19 467 -7 482 7 8 41 24 76 36 55 18 123 58 161 94 6 6 33 30 60 52
27 23 76 64 108 92 90 76 208 144 279 159 80 17 252 32 342 28 47 -2 101 -13
165 -35z"/>
</g>
</svg>
