<?xml version="1.0" standalone="no"?>
<!DOCTYPE svg PUBLIC "-//W3C//DTD SVG 20010904//EN"
 "http://www.w3.org/TR/2001/REC-SVG-20010904/DTD/svg10.dtd">
<svg version="1.0" xmlns="http://www.w3.org/2000/svg"
 width="300.000000pt" height="256.000000pt" viewBox="0 0 300.000000 256.000000"
 preserveAspectRatio="xMidYMid meet">
<metadata>
Created by potrace 1.10, written by Peter Selinger 2001-2011
</metadata>
<g transform="translate(0.000000,256.000000) scale(0.100000,-0.100000)"
fill="#000000" stroke="none">
<path d="M5 1280 c0 -707 1 -996 2 -642 2 353 2 931 0 1285 -1 353 -2 64 -2
-643z"/>
<path d="M924 2185 c-34 -15 -94 -81 -94 -102 0 -7 -6 -13 -14 -13 -23 0 -104
-39 -136 -67 -39 -33 -67 -86 -79 -155 -5 -29 -17 -89 -26 -133 -42 -215 -45
-397 -7 -470 29 -56 54 -87 159 -201 250 -269 339 -438 350 -660 l6 -112 426
4 c497 5 472 -1 482 100 9 83 35 264 53 364 8 47 20 111 25 143 6 33 13 66 15
75 3 10 10 46 16 82 5 36 17 99 25 140 48 241 55 355 29 480 -8 41 -19 95 -24
120 -22 102 -89 194 -166 226 -44 18 -94 18 -122 -2 -21 -14 -23 -14 -39 20
-22 47 -86 91 -162 111 -68 17 -103 12 -144 -24 -17 -14 -20 -14 -28 2 -31 55
-171 93 -240 64 -19 -7 -40 -12 -48 -9 -7 2 -31 -1 -52 -8 -32 -11 -41 -11
-55 1 -19 16 -82 39 -104 38 -8 0 -29 -7 -46 -14z m89 -49 c-2 -8 -97 -46
-115 -46 -19 0 -5 22 25 40 31 20 94 24 90 6z m330 -12 c20 -3 51 -19 69 -36
l31 -29 -6 -97 c-3 -54 -10 -109 -15 -122 -5 -14 -17 -81 -27 -150 -18 -131
-31 -165 -69 -180 -35 -13 -99 7 -145 47 -40 34 -41 36 -41 101 1 99 16 149
71 233 59 91 73 134 64 201 -7 46 -6 50 11 45 11 -3 36 -9 57 -13z m-134 -23
c21 -39 15 -77 -23 -147 -21 -38 -54 -90 -74 -116 -34 -45 -48 -55 -129 -89
-18 -8 -35 -20 -38 -29 -6 -15 -8 -190 -3 -196 2 -2 22 3 43 11 64 23 86 18
181 -38 87 -52 93 -53 150 -49 53 4 65 1 114 -28 75 -44 103 -47 173 -16 50
23 71 26 161 26 l104 0 51 40 c65 51 123 125 140 178 12 36 12 47 -3 87 -10
25 -21 45 -25 45 -5 0 -11 -21 -14 -48 -13 -108 -103 -219 -204 -248 -60 -17
-87 -12 -108 20 -13 20 -13 32 5 112 11 49 23 103 27 119 3 17 10 36 16 42 14
18 1 43 -23 43 -13 0 -20 -7 -20 -18 0 -10 -4 -22 -8 -27 -17 -19 -43 -103
-48 -156 -13 -124 -48 -179 -113 -179 -35 0 -98 27 -105 45 -2 7 0 43 5 81 18
134 40 310 49 393 11 104 31 131 96 131 74 0 165 -54 178 -105 3 -13 0 -43 -8
-67 -12 -33 -12 -44 -3 -50 22 -14 37 -8 43 17 3 14 22 39 42 56 30 27 41 30
75 26 62 -8 157 -114 157 -175 0 -10 4 -22 9 -28 25 -26 48 -284 33 -358 -6
-28 -16 -80 -21 -116 -6 -36 -18 -99 -26 -140 -9 -41 -20 -97 -25 -125 -5 -27
-16 -88 -24 -135 -31 -166 -63 -377 -73 -472 -3 -38 -11 -72 -18 -78 -9 -7
-553 -14 -782 -10 -9 0 -13 18 -13 58 0 56 -20 158 -41 217 -50 135 -172 313
-326 477 -148 157 -173 205 -173 323 1 134 56 462 88 522 29 54 103 86 357
154 22 6 56 17 75 24 52 19 88 18 99 -4z m-134 -433 c-9 -67 -10 -68 -46 -68
-28 0 -29 2 -29 45 0 42 3 47 33 60 48 21 49 20 42 -37z"/>
</g>
</svg>
