<?xml version="1.0" standalone="no"?>
<!DOCTYPE svg PUBLIC "-//W3C//DTD SVG 20010904//EN"
 "http://www.w3.org/TR/2001/REC-SVG-20010904/DTD/svg10.dtd">
<svg version="1.0" xmlns="http://www.w3.org/2000/svg"
 width="300.000000pt" height="233.000000pt" viewBox="0 0 300.000000 233.000000"
 preserveAspectRatio="xMidYMid meet">
<metadata>
Created by potrace 1.10, written by Peter Selinger 2001-2011
</metadata>
<g transform="translate(0.000000,233.000000) scale(0.100000,-0.100000)"
fill="#000000" stroke="none">
<path d="M2315 1763 c-111 -9 -298 -45 -440 -85 l-150 -43 -385 -1 c-399 -1
-447 -5 -530 -48 -234 -120 -272 -135 -448 -173 l-84 -18 6 -35 c4 -19 13
-108 21 -198 8 -90 17 -167 19 -171 15 -23 37 -173 35 -234 l-2 -71 114 3
c119 2 324 -28 554 -81 28 -6 115 -12 195 -12 123 0 156 4 220 23 91 28 153
72 180 128 11 24 20 47 20 52 0 5 19 9 43 9 67 -1 124 20 163 59 36 36 37 37
30 102 l-6 66 98 -6 c53 -4 178 -12 277 -18 99 -6 239 -16 312 -22 155 -13
194 -6 213 42 15 35 8 100 -15 135 -34 52 -68 63 -335 110 -52 9 -174 19 -270
23 -157 6 -220 17 -220 37 0 61 218 148 525 210 116 23 148 49 148 118 0 38
-5 53 -27 74 -25 25 -33 27 -119 28 -50 1 -114 -1 -142 -3z m223 -59 c25 -16
27 -32 9 -54 -25 -31 -48 -42 -119 -55 -207 -39 -333 -77 -439 -132 -86 -44
-113 -73 -113 -120 0 -70 59 -93 244 -93 117 0 210 -12 435 -54 136 -25 155
-36 169 -102 13 -60 -43 -74 -190 -50 -55 9 -187 21 -294 26 -352 19 -425 27
-467 49 -59 30 -147 126 -278 305 -18 25 -74 66 -89 66 -34 0 55 -130 177
-256 119 -124 137 -146 167 -211 24 -51 24 -57 3 -94 -30 -50 -108 -63 -178
-29 -51 24 -73 45 -165 155 -41 50 -94 114 -119 144 -47 56 -94 91 -124 91
-17 0 -17 -1 0 -26 16 -25 16 -27 0 -36 -10 -5 -24 -25 -32 -44 -9 -22 -21
-34 -33 -34 -34 0 -88 -28 -106 -54 -23 -36 -20 -90 8 -135 34 -53 138 -145
216 -189 67 -40 168 -77 178 -67 12 12 -56 67 -146 117 -109 61 -206 148 -215
193 -8 45 12 79 49 83 23 2 44 -8 95 -46 35 -27 142 -89 237 -137 94 -48 172
-92 172 -97 0 -37 -62 -103 -120 -129 -108 -48 -334 -49 -545 -3 -214 46 -328
64 -417 66 -49 1 -88 4 -88 7 0 3 -7 49 -16 101 -8 52 -19 124 -25 160 -5 36
-16 100 -24 144 -8 43 -15 104 -15 136 l0 58 48 12 c217 52 245 61 377 129
111 57 128 62 235 77 113 16 281 15 540 -2 66 -4 109 -1 190 16 408 85 624
128 670 133 51 5 112 -3 138 -19z m-1289 -537 c8 -11 46 -55 84 -99 38 -43 67
-81 64 -84 -8 -8 -136 61 -180 97 -29 24 -37 37 -37 64 0 22 6 37 17 44 20 11
32 6 52 -22z m581 -198 c0 -26 -8 -47 -25 -66 -28 -32 -32 -22 -11 28 8 19 11
49 8 69 -4 32 -3 34 12 21 10 -8 16 -28 16 -52z"/>
</g>
</svg>
