<?xml version="1.0" standalone="no"?>
<!DOCTYPE svg PUBLIC "-//W3C//DTD SVG 20010904//EN"
 "http://www.w3.org/TR/2001/REC-SVG-20010904/DTD/svg10.dtd">
<svg version="1.0" xmlns="http://www.w3.org/2000/svg"
 width="300.000000pt" height="269.000000pt" viewBox="0 0 300.000000 269.000000"
 preserveAspectRatio="xMidYMid meet">
<metadata>
Created by potrace 1.10, written by Peter Selinger 2001-2011
</metadata>
<g transform="translate(0.000000,269.000000) scale(0.100000,-0.100000)"
fill="#000000" stroke="none">
<path d="M1290 2550 c-19 -5 -47 -22 -62 -39 -23 -26 -28 -40 -28 -86 l0 -55
-36 0 c-47 0 -67 -12 -95 -57 -23 -37 -24 -45 -24 -233 1 -164 4 -211 23 -295
55 -248 63 -297 69 -415 6 -123 -8 -263 -27 -275 -5 -3 -16 5 -24 17 -9 13
-53 60 -99 106 -84 85 -169 142 -242 161 -51 13 -137 1 -173 -26 -66 -49 -45
-115 73 -228 83 -79 223 -284 280 -412 42 -91 93 -143 255 -261 189 -136 213
-168 209 -278 l-2 -64 318 -3 c363 -4 349 -7 365 80 5 29 14 60 19 70 28 50
102 250 126 343 65 250 77 400 49 596 -13 90 -14 166 -9 439 7 355 1 439 -38
507 -25 45 -67 69 -107 62 l-28 -6 5 59 c3 32 0 84 -7 116 -9 45 -18 62 -44
82 -60 45 -139 26 -172 -42 -14 -30 -20 -75 -25 -208 -4 -93 -13 -190 -19
-215 -6 -25 -20 -94 -30 -154 -21 -120 -38 -156 -75 -156 -40 0 -66 51 -115
220 -12 41 -25 86 -30 100 -5 14 -18 59 -30 100 -12 41 -25 86 -30 100 -5 14
-16 52 -25 85 -10 33 -23 80 -30 105 -7 25 -18 64 -24 88 -17 61 -69 88 -141
72z m68 -57 c21 -19 52 -98 52 -134 0 -12 32 -127 70 -257 122 -408 131 -430
183 -462 60 -37 117 -20 150 45 22 45 75 382 82 525 7 138 16 179 45 205 31
28 61 8 83 -53 18 -49 18 -61 2 -304 -17 -262 -40 -418 -75 -509 -11 -29 -17
-55 -15 -58 9 -8 59 35 78 66 22 39 67 356 67 480 0 117 44 151 91 71 l24 -43
0 -400 c1 -257 5 -447 14 -530 18 -180 6 -297 -55 -540 -29 -116 -47 -167
-103 -292 -23 -50 -41 -102 -41 -117 l0 -26 -279 0 -278 0 -6 58 c-9 109 -62
173 -245 300 -138 96 -198 156 -226 228 -45 117 -198 339 -286 415 -59 51
-100 104 -100 128 0 15 61 41 97 41 72 0 256 -124 331 -223 79 -104 113 -108
155 -19 20 43 22 61 21 217 0 160 -3 183 -42 375 -53 255 -70 417 -55 524 12
80 31 116 64 116 29 0 58 -39 65 -89 20 -146 57 -329 89 -446 9 -33 23 -85 30
-116 14 -63 28 -94 58 -126 25 -28 51 -31 43 -5 -3 9 -16 60 -30 112 -13 52
-39 149 -56 215 -37 138 -52 202 -79 335 -30 146 -34 178 -26 226 5 36 13 49
38 65 39 23 40 23 65 2z"/>
<path d="M747 3 c414 -2 1092 -2 1505 0 414 1 76 2 -752 2 -828 0 -1166 -1
-753 -2z"/>
</g>
</svg>
